<svg width="312.201" height="73.801" viewBox="0 0 312.201 73.801" xmlns="http://www.w3.org/2000/svg">
    <g id="svgGroup" stroke-linecap="round" fill-rule="evenodd" font-size="9pt" stroke="#000" stroke-width="2mm"
       fill="#000" style="stroke:#000;stroke-width:2mm;fill:#000">
        <path d="M 84.6 72.401 L 69.8 72.701 L 69.8 70.201 L 71.8 70.001 A 46.103 46.103 0 0 0 73.733 69.741 Q 75.85 69.408 77.15 68.951 A 3.868 3.868 0 0 0 79.396 66.908 A 5.768 5.768 0 0 0 79.7 66.151 A 10.184 10.184 0 0 0 80.031 64.769 Q 80.298 63.245 80.372 60.961 A 57.6 57.6 0 0 0 80.4 59.101 L 80.4 14.701 A 56.942 56.942 0 0 0 80.357 12.382 Q 80.266 10.162 79.986 8.724 A 9.034 9.034 0 0 0 79.7 7.601 A 5.05 5.05 0 0 0 79.049 6.279 A 3.811 3.811 0 0 0 77.15 4.851 A 13.685 13.685 0 0 0 75.852 4.473 Q 74.22 4.077 71.8 3.801 L 69.8 3.601 L 69.8 1.101 L 84.6 1.401 L 84.7 1.401 L 99.5 1.101 L 99.5 3.601 L 97.5 3.801 A 44.974 44.974 0 0 0 95.522 4.075 Q 93.719 4.369 92.484 4.758 A 12 12 0 0 0 92.2 4.851 A 3.948 3.948 0 0 0 89.794 7.098 A 5.654 5.654 0 0 0 89.6 7.601 A 9.534 9.534 0 0 0 89.278 8.921 Q 89.024 10.337 88.941 12.459 A 57.43 57.43 0 0 0 88.9 14.701 L 88.9 34.001 L 127 34.001 L 127 14.701 A 56.942 56.942 0 0 0 126.957 12.382 Q 126.866 10.162 126.586 8.724 A 9.034 9.034 0 0 0 126.3 7.601 A 5.05 5.05 0 0 0 125.649 6.279 A 3.811 3.811 0 0 0 123.75 4.851 A 13.685 13.685 0 0 0 122.452 4.473 Q 120.82 4.077 118.4 3.801 L 116.4 3.601 L 116.4 1.101 L 131.2 1.401 L 131.3 1.401 L 146.1 1.101 L 146.1 3.601 L 144.1 3.801 A 44.974 44.974 0 0 0 142.122 4.075 Q 140.319 4.369 139.084 4.758 A 12 12 0 0 0 138.8 4.851 Q 136.9 5.501 136.2 7.601 A 9.534 9.534 0 0 0 135.878 8.921 Q 135.624 10.337 135.541 12.459 A 57.43 57.43 0 0 0 135.5 14.701 L 135.5 59.101 A 55.11 55.11 0 0 0 135.544 61.379 Q 135.635 63.566 135.915 65.012 A 9.576 9.576 0 0 0 136.2 66.151 A 5.066 5.066 0 0 0 136.856 67.499 A 3.823 3.823 0 0 0 138.8 68.951 A 15.066 15.066 0 0 0 140.134 69.332 Q 141.534 69.67 143.457 69.921 A 51.985 51.985 0 0 0 144.1 70.001 L 146.1 70.201 L 146.1 72.701 L 131.3 72.401 L 131.2 72.401 L 116.4 72.701 L 116.4 70.201 L 118.4 70.001 A 46.103 46.103 0 0 0 120.333 69.741 Q 122.45 69.408 123.75 68.951 A 3.868 3.868 0 0 0 125.996 66.908 A 5.768 5.768 0 0 0 126.3 66.151 A 10.184 10.184 0 0 0 126.631 64.769 Q 126.898 63.245 126.972 60.961 A 57.6 57.6 0 0 0 127 59.101 L 127 37.201 L 88.9 37.201 L 88.9 59.101 A 55.111 55.111 0 0 0 88.944 61.379 Q 89.035 63.566 89.315 65.012 A 9.576 9.576 0 0 0 89.6 66.151 A 5.066 5.066 0 0 0 90.256 67.499 A 3.823 3.823 0 0 0 92.2 68.951 A 15.066 15.066 0 0 0 93.534 69.332 Q 94.934 69.67 96.857 69.921 A 51.985 51.985 0 0 0 97.5 70.001 L 99.5 70.201 L 99.5 72.701 L 84.7 72.401 L 84.6 72.401 Z M 56 1.401 L 58.5 1.401 L 58.3 13.101 L 58.5 24.801 L 56 24.801 Q 54.771 16.274 50.718 10.907 A 21.075 21.075 0 0 0 48.8 8.701 A 19.131 19.131 0 0 0 38.037 3.335 A 27.048 27.048 0 0 0 33.7 3.001 A 27.245 27.245 0 0 0 28.685 3.438 Q 25.272 4.077 22.6 5.651 Q 18.1 8.301 15.4 12.951 A 32.445 32.445 0 0 0 12.595 19.338 A 41.308 41.308 0 0 0 11.45 23.751 A 62.663 62.663 0 0 0 10.323 32.609 A 74.121 74.121 0 0 0 10.2 36.901 A 82.148 82.148 0 0 0 10.572 44.937 Q 10.962 48.898 11.762 52.312 A 43.676 43.676 0 0 0 12.45 54.901 A 26.997 26.997 0 0 0 14.865 60.615 A 20.004 20.004 0 0 0 19.85 66.451 A 17.838 17.838 0 0 0 26.269 69.596 Q 28.759 70.274 31.694 70.444 A 34.783 34.783 0 0 0 33.7 70.501 A 23.719 23.719 0 0 0 39.599 69.797 A 19.025 19.025 0 0 0 45 67.501 Q 49.8 64.501 52.75 59.501 Q 55.7 54.501 56.3 48.501 L 58.7 48.501 L 58.5 60.701 L 58.8 72.401 L 56.4 72.401 L 56.1 71.301 A 18.024 18.024 0 0 0 55.286 69.14 A 16.42 16.42 0 0 0 55.15 68.851 A 2.146 2.146 0 0 0 54.671 68.184 Q 54.143 67.701 53.3 67.701 A 3.051 3.051 0 0 0 52.715 67.762 Q 52.229 67.857 51.65 68.101 A 29.417 29.417 0 0 0 50.771 68.489 Q 50.324 68.695 49.833 68.936 A 51.057 51.057 0 0 0 49.5 69.101 A 44.615 44.615 0 0 1 47.524 70.024 Q 45.457 70.933 42.7 71.951 Q 38.763 73.404 33.507 73.495 A 40.901 40.901 0 0 1 32.8 73.501 A 37.066 37.066 0 0 1 24.003 72.502 A 28.762 28.762 0 0 1 15.25 68.801 Q 7.9 64.101 3.95 55.851 A 39.899 39.899 0 0 1 0.489 44.121 A 51.645 51.645 0 0 1 0 36.901 A 42.945 42.945 0 0 1 1.016 27.408 A 36.812 36.812 0 0 1 2.6 22.201 A 36.948 36.948 0 0 1 8.956 11.453 A 35.144 35.144 0 0 1 9.8 10.501 Q 14.4 5.501 20.45 2.751 Q 26.5 0.001 33.4 0.001 A 45.398 45.398 0 0 1 37.507 0.175 Q 39.427 0.35 41.067 0.7 A 20.789 20.789 0 0 1 43.45 1.351 Q 47.4 2.701 49.4 3.701 Q 50.7 4.301 51.8 4.751 Q 52.786 5.154 53.21 5.196 A 0.927 0.927 0 0 0 53.3 5.201 A 2.306 2.306 0 0 0 54.322 4.978 A 2.324 2.324 0 0 0 55.1 4.351 Q 55.693 3.631 55.928 2.014 A 12.647 12.647 0 0 0 56 1.401 Z M 248.4 72.401 L 233.9 72.701 L 233.9 70.201 L 235.9 70.001 A 46.103 46.103 0 0 0 237.833 69.741 Q 239.95 69.408 241.25 68.951 A 3.868 3.868 0 0 0 243.496 66.908 A 5.768 5.768 0 0 0 243.8 66.151 A 10.184 10.184 0 0 0 244.131 64.769 Q 244.398 63.245 244.472 60.961 A 57.6 57.6 0 0 0 244.5 59.101 L 244.5 14.701 A 56.942 56.942 0 0 0 244.457 12.382 Q 244.366 10.162 244.086 8.724 A 9.034 9.034 0 0 0 243.8 7.601 A 5.05 5.05 0 0 0 243.149 6.279 A 3.811 3.811 0 0 0 241.25 4.851 A 13.685 13.685 0 0 0 239.952 4.473 Q 238.32 4.077 235.9 3.801 L 233.9 3.601 L 233.9 1.101 L 248.7 1.401 L 262.3 1.401 A 84.722 84.722 0 0 1 269.477 1.693 A 69.404 69.404 0 0 1 273.5 2.151 Q 278.7 2.901 282.6 4.951 Q 286.5 7.001 288.7 10.901 Q 290.9 14.801 290.9 21.001 A 19.141 19.141 0 0 1 289.525 28.368 A 17.86 17.86 0 0 1 284.2 35.401 Q 277.5 40.901 264.7 40.901 L 253 40.901 L 253 59.101 Q 253 64.001 253.85 66.151 A 4.768 4.768 0 0 0 254.938 67.831 Q 255.703 68.58 256.828 68.929 A 5.726 5.726 0 0 0 256.9 68.951 A 19.359 19.359 0 0 0 258.451 69.332 Q 260.083 69.67 262.344 69.921 A 70.821 70.821 0 0 0 263.1 70.001 L 265.3 70.201 L 265.3 72.701 L 248.4 72.401 Z M 181.232 72.224 A 36.484 36.484 0 0 0 191 73.501 A 40.243 40.243 0 0 0 193.316 73.435 A 34.287 34.287 0 0 0 204.85 70.801 Q 211.2 68.101 215.85 63.201 A 33.066 33.066 0 0 0 217.791 60.963 A 35.747 35.747 0 0 0 223.1 51.551 A 37.287 37.287 0 0 0 224.735 46.071 A 43.96 43.96 0 0 0 225.7 36.701 A 47.049 47.049 0 0 0 225.495 32.255 A 38.547 38.547 0 0 0 223.1 21.901 Q 220.5 15.201 215.85 10.301 Q 211.2 5.401 204.85 2.701 A 32.703 32.703 0 0 0 200.769 1.277 A 36.484 36.484 0 0 0 191 0.001 A 40.243 40.243 0 0 0 188.685 0.067 A 34.287 34.287 0 0 0 177.15 2.701 Q 170.8 5.401 166.15 10.301 A 33.415 33.415 0 0 0 164.613 12.038 A 35.61 35.61 0 0 0 158.9 21.901 A 36.777 36.777 0 0 0 157.217 27.575 A 43.845 43.845 0 0 0 156.3 36.701 A 47.344 47.344 0 0 0 156.484 40.909 A 39.133 39.133 0 0 0 158.9 51.551 A 39.835 39.835 0 0 0 159.406 52.8 A 34.583 34.583 0 0 0 166.15 63.201 Q 170.8 68.101 177.15 70.801 A 32.703 32.703 0 0 0 181.232 72.224 Z M 191 70.501 A 30.161 30.161 0 0 0 196.945 69.948 Q 200.628 69.207 203.513 67.475 A 17.649 17.649 0 0 0 205.1 66.401 A 21.591 21.591 0 0 0 211.155 59.132 A 28.888 28.888 0 0 0 213 54.751 A 45.888 45.888 0 0 0 214.753 47.303 Q 215.314 43.658 215.454 39.517 A 83.248 83.248 0 0 0 215.5 36.701 A 74.23 74.23 0 0 0 215.088 28.656 Q 214.485 23.133 213 18.651 A 27.317 27.317 0 0 0 210.258 12.714 A 20.776 20.776 0 0 0 205.1 7.051 Q 200.076 3.282 192.195 3.02 A 35.933 35.933 0 0 0 191 3.001 Q 183.324 3.001 178.158 6.227 A 18.076 18.076 0 0 0 176.95 7.051 Q 171.5 11.101 169 18.651 A 45.888 45.888 0 0 0 167.248 26.099 Q 166.687 29.743 166.547 33.885 A 83.248 83.248 0 0 0 166.5 36.701 A 74.23 74.23 0 0 0 166.913 44.745 Q 167.516 50.268 169 54.751 A 27.12 27.12 0 0 0 171.857 60.861 A 21.027 21.027 0 0 0 176.95 66.401 A 19.627 19.627 0 0 0 184.305 69.771 Q 187.085 70.432 190.325 70.494 A 35.304 35.304 0 0 0 191 70.501 Z M 307.4 52.501 L 304.2 52.501 Q 303.9 41.401 302.95 30.301 Q 302 19.201 300.9 8.101 A 19.549 19.549 0 0 1 300.834 7.14 Q 300.728 4.696 301.342 3.137 A 4.613 4.613 0 0 1 302.05 1.901 A 5.664 5.664 0 0 1 303.304 0.743 A 4.424 4.424 0 0 1 305.8 0.001 Q 307.8 0.001 309.3 1.601 Q 310.8 3.201 310.8 6.701 A 4.142 4.142 0 0 1 310.785 7.054 A 5.3 5.3 0 0 1 310.75 7.351 A 4.954 4.954 0 0 0 310.708 7.808 A 5.966 5.966 0 0 0 310.7 8.101 Q 309.7 19.201 308.65 30.251 Q 307.6 41.301 307.4 52.501 Z M 266.2 4.201 L 253 4.201 L 253 37.901 L 264.7 37.901 A 38.267 38.267 0 0 0 268.507 37.724 Q 272.358 37.338 274.813 36.105 A 10.506 10.506 0 0 0 275.2 35.901 Q 278.8 33.901 280.1 30.101 A 22.536 22.536 0 0 0 281.023 26.279 Q 281.318 24.387 281.382 22.23 A 41.101 41.101 0 0 0 281.4 21.001 A 36.406 36.406 0 0 0 281.244 17.513 Q 281.085 15.857 280.761 14.467 A 14.744 14.744 0 0 0 279.95 11.951 A 14.926 14.926 0 0 0 278.624 9.501 Q 277.664 8.084 276.452 7.128 A 9.104 9.104 0 0 0 276.15 6.901 A 12.783 12.783 0 0 0 272.617 5.077 A 11.732 11.732 0 0 0 271.15 4.701 A 29.756 29.756 0 0 0 268.28 4.296 A 23.423 23.423 0 0 0 266.2 4.201 Z M 301.36 71.96 A 6.138 6.138 0 0 0 305.8 73.801 A 6.201 6.201 0 0 0 308.085 73.383 A 6.465 6.465 0 0 0 310.3 71.901 A 7.796 7.796 0 0 0 310.359 71.841 A 6.138 6.138 0 0 0 312.2 67.401 A 6.201 6.201 0 0 0 311.783 65.116 A 6.465 6.465 0 0 0 310.3 62.901 A 7.796 7.796 0 0 0 310.241 62.842 A 6.138 6.138 0 0 0 305.8 61.001 A 6.201 6.201 0 0 0 303.516 61.419 A 6.465 6.465 0 0 0 301.3 62.901 A 7.796 7.796 0 0 0 301.242 62.96 A 6.138 6.138 0 0 0 299.4 67.401 A 6.201 6.201 0 0 0 299.818 69.685 A 6.465 6.465 0 0 0 301.3 71.901 A 7.796 7.796 0 0 0 301.36 71.96 Z"
              vector-effect="non-scaling-stroke"/>
    </g>
</svg>