<svg width="708.2" height="73.501" viewBox="0 0 708.2 73.501" xmlns="http://www.w3.org/2000/svg">
    <g id="svgGroup" stroke-linecap="round" fill-rule="evenodd" font-size="9pt" stroke="#000" stroke-width="5"
       fill="#000" style="stroke:#000;stroke-width:5;fill:#000">
        <path d="M 161.9 72.401 L 147.1 72.701 L 147.1 70.201 L 149.1 70.001 A 46.103 46.103 0 0 0 151.033 69.741 Q 153.149 69.408 154.45 68.951 A 3.868 3.868 0 0 0 156.695 66.908 A 5.768 5.768 0 0 0 157 66.151 A 10.184 10.184 0 0 0 157.33 64.769 Q 157.598 63.244 157.672 60.961 A 57.6 57.6 0 0 0 157.7 59.101 L 157.7 14.701 A 56.942 56.942 0 0 0 157.656 12.382 Q 157.565 10.162 157.286 8.724 A 9.034 9.034 0 0 0 157 7.601 A 5.05 5.05 0 0 0 156.348 6.278 A 3.811 3.811 0 0 0 154.45 4.851 A 13.685 13.685 0 0 0 153.151 4.473 Q 151.52 4.077 149.1 3.801 L 147.1 3.601 L 147.1 1.101 L 161.9 1.401 L 175.2 1.101 L 175.2 3.701 L 173.2 3.901 A 23.076 23.076 0 0 0 171.482 4.133 Q 169.862 4.42 168.8 4.905 A 6.284 6.284 0 0 0 168.6 5.001 Q 167 5.801 166.4 8.001 A 12.623 12.623 0 0 0 166.11 9.42 Q 165.873 10.987 165.817 13.25 A 59.137 59.137 0 0 0 165.8 14.701 L 165.8 41.501 L 188.8 14.601 A 41.005 41.005 0 0 0 190 13.106 Q 191.178 11.563 191.829 10.341 A 12.113 12.113 0 0 0 191.85 10.301 Q 192.463 9.139 192.681 8.185 A 4.44 4.44 0 0 0 192.8 7.201 Q 192.8 4.501 188.2 4.001 L 185 3.701 L 185 1.101 L 197.8 1.401 L 209.9 1.101 L 209.9 3.601 L 206.5 4.001 A 11.595 11.595 0 0 0 201.729 5.787 A 14.11 14.11 0 0 0 200.85 6.401 Q 198.599 8.1 196.167 10.809 A 52.234 52.234 0 0 0 195.3 11.801 L 179.7 30.201 L 198.9 55.301 A 239.231 239.231 0 0 0 201.751 58.921 Q 203.065 60.556 204.264 61.977 A 131.523 131.523 0 0 0 205.05 62.901 A 29.534 29.534 0 0 0 207.563 65.503 Q 209.091 66.894 210.65 67.851 A 15.142 15.142 0 0 0 216.184 69.875 A 17.86 17.86 0 0 0 217.1 70.001 L 219.2 70.201 L 219.2 72.701 L 204 72.401 L 189.2 72.701 L 189.2 70.201 L 190.7 70.101 Q 195.5 69.801 195.5 67.201 A 4.232 4.232 0 0 0 195.274 65.919 Q 194.886 64.708 193.83 63.127 A 25.869 25.869 0 0 0 192.8 61.701 L 173.8 37.201 L 165.8 46.601 L 165.8 59.101 Q 165.8 62.87 166.185 65.012 A 10.184 10.184 0 0 0 166.45 66.151 A 5.561 5.561 0 0 0 166.974 67.374 A 3.562 3.562 0 0 0 168.8 68.951 Q 170.336 69.538 173.095 69.921 A 44.838 44.838 0 0 0 173.7 70.001 L 175.5 70.201 L 175.5 72.701 L 162 72.401 L 161.9 72.401 Z M 650.9 72.401 L 636.1 72.701 L 636.1 70.201 L 638.1 70.001 A 46.103 46.103 0 0 0 640.033 69.741 Q 642.149 69.408 643.45 68.951 A 3.868 3.868 0 0 0 645.695 66.908 A 5.768 5.768 0 0 0 646 66.151 A 10.184 10.184 0 0 0 646.33 64.769 Q 646.598 63.244 646.672 60.961 A 57.6 57.6 0 0 0 646.7 59.101 L 646.7 14.701 A 56.942 56.942 0 0 0 646.656 12.382 Q 646.565 10.162 646.286 8.724 A 9.034 9.034 0 0 0 646 7.601 A 5.05 5.05 0 0 0 645.348 6.278 A 3.811 3.811 0 0 0 643.45 4.851 A 13.685 13.685 0 0 0 642.151 4.473 Q 640.52 4.077 638.1 3.801 L 636.1 3.601 L 636.1 1.101 L 650.9 1.401 L 664.2 1.101 L 664.2 3.701 L 662.2 3.901 A 23.076 23.076 0 0 0 660.482 4.133 Q 658.862 4.42 657.8 4.905 A 6.284 6.284 0 0 0 657.6 5.001 Q 656 5.801 655.4 8.001 A 12.623 12.623 0 0 0 655.11 9.42 Q 654.873 10.987 654.817 13.25 A 59.137 59.137 0 0 0 654.8 14.701 L 654.8 41.501 L 677.8 14.601 A 41.005 41.005 0 0 0 679 13.106 Q 680.178 11.563 680.829 10.341 A 12.113 12.113 0 0 0 680.85 10.301 Q 681.463 9.139 681.681 8.185 A 4.44 4.44 0 0 0 681.8 7.201 Q 681.8 4.501 677.2 4.001 L 674 3.701 L 674 1.101 L 686.8 1.401 L 698.9 1.101 L 698.9 3.601 L 695.5 4.001 A 11.595 11.595 0 0 0 690.729 5.787 A 14.11 14.11 0 0 0 689.85 6.401 Q 687.599 8.1 685.167 10.809 A 52.234 52.234 0 0 0 684.3 11.801 L 668.7 30.201 L 687.9 55.301 A 239.231 239.231 0 0 0 690.751 58.921 Q 692.065 60.556 693.264 61.977 A 131.523 131.523 0 0 0 694.05 62.901 A 29.534 29.534 0 0 0 696.563 65.503 Q 698.091 66.894 699.65 67.851 A 15.142 15.142 0 0 0 705.184 69.875 A 17.86 17.86 0 0 0 706.1 70.001 L 708.2 70.201 L 708.2 72.701 L 693 72.401 L 678.2 72.701 L 678.2 70.201 L 679.7 70.101 Q 684.5 69.801 684.5 67.201 A 4.232 4.232 0 0 0 684.274 65.919 Q 683.886 64.708 682.83 63.127 A 25.869 25.869 0 0 0 681.8 61.701 L 662.8 37.201 L 654.8 46.601 L 654.8 59.101 Q 654.8 62.87 655.185 65.012 A 10.184 10.184 0 0 0 655.45 66.151 A 5.561 5.561 0 0 0 655.974 67.374 A 3.562 3.562 0 0 0 657.8 68.951 Q 659.336 69.538 662.095 69.921 A 44.838 44.838 0 0 0 662.7 70.001 L 664.5 70.201 L 664.5 72.701 L 651 72.401 L 650.9 72.401 Z M 236 72.401 L 221.2 72.701 L 221.2 70.201 L 223.2 70.001 A 46.103 46.103 0 0 0 225.133 69.741 Q 227.249 69.408 228.55 68.951 A 3.868 3.868 0 0 0 230.795 66.908 A 5.768 5.768 0 0 0 231.1 66.151 A 10.184 10.184 0 0 0 231.43 64.769 Q 231.698 63.244 231.772 60.961 A 57.6 57.6 0 0 0 231.8 59.101 L 231.8 14.701 A 56.942 56.942 0 0 0 231.756 12.382 Q 231.665 10.162 231.386 8.724 A 9.034 9.034 0 0 0 231.1 7.601 A 5.05 5.05 0 0 0 230.448 6.278 A 3.811 3.811 0 0 0 228.55 4.851 A 13.685 13.685 0 0 0 227.251 4.473 Q 225.62 4.077 223.2 3.801 L 221.2 3.601 L 221.2 1.101 L 236 1.401 L 274.8 1.401 L 275 8.601 L 275.8 17.801 L 273.4 17.801 A 47.983 47.983 0 0 0 272.919 15.164 Q 272.63 13.81 272.287 12.67 A 19.835 19.835 0 0 0 271.55 10.601 A 10.228 10.228 0 0 0 270.337 8.464 A 7.827 7.827 0 0 0 268.3 6.551 A 9.844 9.844 0 0 0 266.354 5.602 Q 265.357 5.237 264.159 4.996 A 21.028 21.028 0 0 0 262.65 4.751 A 47.728 47.728 0 0 0 259.967 4.494 Q 258.571 4.397 256.954 4.349 A 115.667 115.667 0 0 0 253.5 4.301 L 240.3 4.301 L 240.3 33.601 L 251.5 33.601 A 7.11 7.11 0 0 0 253.416 33.352 A 5.908 5.908 0 0 0 255 32.651 A 4.538 4.538 0 0 0 256.123 31.613 Q 256.884 30.649 257.45 29.101 Q 258.308 26.752 258.554 22.527 A 53.305 53.305 0 0 0 258.6 21.601 L 261.1 21.601 L 260.8 35.001 L 261.1 49.801 L 258.6 49.801 Q 258.6 42.501 256.8 39.451 A 6.543 6.543 0 0 0 255.211 37.592 Q 253.688 36.401 251.5 36.401 L 240.3 36.401 L 240.3 61.701 Q 240.3 65.595 241.682 67.35 A 3.742 3.742 0 0 0 242.4 68.051 A 5.743 5.743 0 0 0 243.915 68.817 Q 245.518 69.38 248.061 69.538 A 34.472 34.472 0 0 0 250.2 69.601 L 259.5 69.601 A 41.855 41.855 0 0 0 262.876 69.474 Q 266.316 69.194 268.55 68.301 A 7.991 7.991 0 0 0 272.239 65.261 A 11.869 11.869 0 0 0 273.4 63.051 Q 274.845 59.484 275.474 52.858 A 86.361 86.361 0 0 0 275.6 51.401 L 278.1 51.401 L 277.4 63.401 L 277.1 72.401 L 236 72.401 Z M 37.1 72.401 L 20.3 72.701 L 20.3 70.201 L 22.5 70.001 Q 25.879 69.671 27.934 69.171 A 15.396 15.396 0 0 0 28.75 68.951 A 4.435 4.435 0 0 0 31.549 66.603 A 5.703 5.703 0 0 0 31.75 66.151 A 8.811 8.811 0 0 0 32.161 64.724 Q 32.48 63.198 32.567 60.921 A 47.639 47.639 0 0 0 32.6 59.101 L 32.6 4.101 L 18.5 4.101 A 19.613 19.613 0 0 0 15.691 4.289 Q 14.236 4.5 13.044 4.947 A 8.946 8.946 0 0 0 11.25 5.851 A 10.925 10.925 0 0 0 8.956 7.921 Q 8.093 8.936 7.327 10.248 A 21.819 21.819 0 0 0 6.65 11.501 Q 4.7 15.401 2.1 21.901 L 0 21.401 L 2.5 9.101 L 3.6 1.101 L 32.1 1.401 L 41.6 1.401 L 70.2 1.101 L 71.3 9.101 L 73.8 21.401 L 71.6 22.001 A 194.698 194.698 0 0 0 69.924 17.904 Q 68.569 14.701 67.35 12.201 A 22.876 22.876 0 0 0 65.796 9.475 Q 64.425 7.432 62.8 6.151 Q 60.2 4.101 55.9 4.101 L 41.1 4.101 L 41.1 59.101 Q 41.1 64.001 41.95 66.151 A 4.768 4.768 0 0 0 43.038 67.831 Q 43.802 68.58 44.927 68.928 A 5.726 5.726 0 0 0 45 68.951 A 19.359 19.359 0 0 0 46.551 69.332 Q 48.183 69.67 50.443 69.921 A 70.821 70.821 0 0 0 51.2 70.001 L 53.4 70.201 L 53.4 72.701 L 37.1 72.401 Z M 79.2 72.401 L 67.1 72.701 L 67.1 70.201 L 68 70.101 Q 70.6 69.729 72.511 69.137 A 16.481 16.481 0 0 0 73.75 68.701 Q 76 67.801 77.65 65.751 A 16.113 16.113 0 0 0 78.866 63.995 Q 79.427 63.07 79.968 61.953 A 35.737 35.737 0 0 0 80.8 60.101 L 105 1.401 L 108.4 1.401 L 132 60.101 A 36.075 36.075 0 0 0 133.279 62.909 Q 134.671 65.626 136.195 67.194 A 10.497 10.497 0 0 0 136.3 67.301 A 8.843 8.843 0 0 0 139.839 69.433 A 12.846 12.846 0 0 0 142.6 70.001 L 144.6 70.201 L 144.6 72.701 L 132.2 72.401 L 116.2 72.701 L 116.2 70.201 L 118.2 70.001 A 21.384 21.384 0 0 0 119.965 69.729 Q 121.649 69.392 122.683 68.827 A 4.624 4.624 0 0 0 123.2 68.501 A 3.526 3.526 0 0 0 124.67 65.945 A 4.867 4.867 0 0 0 124.7 65.401 A 7.909 7.909 0 0 0 124.563 64.014 Q 124.263 62.338 123.3 60.001 L 118.1 47.001 L 89.9 47.001 L 84.5 60.001 A 107.907 107.907 0 0 0 83.888 61.611 Q 83.566 62.48 83.3 63.251 A 10.917 10.917 0 0 0 82.995 64.289 Q 82.8 65.113 82.8 65.801 A 3.451 3.451 0 0 0 83.072 67.194 Q 83.41 67.971 84.172 68.517 A 4.302 4.302 0 0 0 84.45 68.701 A 6.125 6.125 0 0 0 85.619 69.233 Q 87.228 69.79 89.9 70.001 L 91.9 70.201 L 91.9 72.701 L 79.2 72.401 Z M 317.1 72.401 L 305 72.701 L 305 70.201 L 305.9 70.101 Q 308.5 69.729 310.411 69.137 A 16.481 16.481 0 0 0 311.65 68.701 Q 313.9 67.801 315.55 65.751 A 16.113 16.113 0 0 0 316.766 63.995 Q 317.327 63.07 317.868 61.953 A 35.737 35.737 0 0 0 318.7 60.101 L 342.9 1.401 L 346.3 1.401 L 369.9 60.101 A 36.075 36.075 0 0 0 371.179 62.909 Q 372.571 65.626 374.095 67.194 A 10.497 10.497 0 0 0 374.2 67.301 A 8.843 8.843 0 0 0 377.739 69.433 A 12.846 12.846 0 0 0 380.5 70.001 L 382.5 70.201 L 382.5 72.701 L 370.1 72.401 L 354.1 72.701 L 354.1 70.201 L 356.1 70.001 A 21.384 21.384 0 0 0 357.865 69.729 Q 359.549 69.392 360.583 68.827 A 4.624 4.624 0 0 0 361.1 68.501 A 3.526 3.526 0 0 0 362.57 65.945 A 4.867 4.867 0 0 0 362.6 65.401 A 7.909 7.909 0 0 0 362.463 64.014 Q 362.162 62.338 361.2 60.001 L 356 47.001 L 327.8 47.001 L 322.4 60.001 A 107.907 107.907 0 0 0 321.788 61.611 Q 321.466 62.48 321.2 63.251 A 10.917 10.917 0 0 0 320.895 64.289 Q 320.7 65.113 320.7 65.801 A 3.451 3.451 0 0 0 320.972 67.194 Q 321.31 67.971 322.072 68.517 A 4.302 4.302 0 0 0 322.35 68.701 A 6.125 6.125 0 0 0 323.519 69.233 Q 325.128 69.79 327.8 70.001 L 329.8 70.201 L 329.8 72.701 L 317.1 72.401 Z M 424.2 72.401 L 409.4 72.701 L 409.4 70.201 L 411.4 70.001 A 51.987 51.987 0 0 0 413.333 69.745 Q 415.147 69.468 416.362 69.119 A 12.131 12.131 0 0 0 416.75 69.001 Q 418.6 68.401 419.3 66.201 Q 419.862 64.435 419.973 60.932 A 57.97 57.97 0 0 0 420 59.101 L 420 14.701 A 57.175 57.175 0 0 0 419.956 12.379 Q 419.865 10.152 419.586 8.694 A 9.507 9.507 0 0 0 419.3 7.551 A 5.234 5.234 0 0 0 418.683 6.25 A 3.777 3.777 0 0 0 416.75 4.751 Q 415.079 4.163 412.062 3.862 A 47.113 47.113 0 0 0 411.4 3.801 L 409.4 3.601 L 409.4 1.101 L 424.4 1.401 L 437.3 1.101 L 437.3 3.401 L 435.7 3.601 A 31.406 31.406 0 0 0 434.058 3.811 Q 432.328 4.083 431.25 4.501 A 3.31 3.31 0 0 0 429.54 6.012 A 5.162 5.162 0 0 0 429.1 7.051 A 9.545 9.545 0 0 0 428.824 8.266 Q 428.604 9.578 428.533 11.525 A 54.842 54.842 0 0 0 428.5 13.501 L 428.5 55.201 Q 428.5 60.101 429.05 63.301 A 7.682 7.682 0 0 0 429.775 65.536 A 6.081 6.081 0 0 0 432.1 68.001 A 8.118 8.118 0 0 0 433.965 68.792 Q 435.819 69.343 438.558 69.465 A 36.733 36.733 0 0 0 440.2 69.501 L 447.7 69.501 Q 453.078 69.501 456.603 67.724 A 11.229 11.229 0 0 0 460.25 64.851 Q 463.248 61.229 464.336 55.091 A 38.797 38.797 0 0 0 464.8 51.401 L 467 51.401 L 466 72.701 L 424.2 72.401 Z M 501.631 72.224 A 36.484 36.484 0 0 0 511.4 73.501 A 40.243 40.243 0 0 0 513.716 73.435 A 34.287 34.287 0 0 0 525.25 70.801 Q 531.6 68.101 536.25 63.201 A 33.066 33.066 0 0 0 538.19 60.963 A 35.747 35.747 0 0 0 543.5 51.551 A 37.287 37.287 0 0 0 545.135 46.071 A 43.96 43.96 0 0 0 546.1 36.701 A 47.049 47.049 0 0 0 545.894 32.255 A 38.547 38.547 0 0 0 543.5 21.901 Q 540.9 15.201 536.25 10.301 Q 531.6 5.401 525.25 2.701 A 32.703 32.703 0 0 0 521.169 1.277 A 36.484 36.484 0 0 0 511.4 0.001 A 40.243 40.243 0 0 0 509.084 0.066 A 34.287 34.287 0 0 0 497.55 2.701 Q 491.2 5.401 486.55 10.301 A 33.415 33.415 0 0 0 485.012 12.038 A 35.61 35.61 0 0 0 479.3 21.901 A 36.777 36.777 0 0 0 477.617 27.575 A 43.845 43.845 0 0 0 476.7 36.701 A 47.344 47.344 0 0 0 476.883 40.908 A 39.133 39.133 0 0 0 479.3 51.551 A 39.835 39.835 0 0 0 479.806 52.8 A 34.583 34.583 0 0 0 486.55 63.201 Q 491.2 68.101 497.55 70.801 A 32.703 32.703 0 0 0 501.631 72.224 Z M 583.431 72.224 A 36.484 36.484 0 0 0 593.2 73.501 A 40.243 40.243 0 0 0 595.516 73.435 A 34.287 34.287 0 0 0 607.05 70.801 Q 613.4 68.101 618.05 63.201 A 33.066 33.066 0 0 0 619.99 60.963 A 35.747 35.747 0 0 0 625.3 51.551 A 37.287 37.287 0 0 0 626.935 46.071 A 43.96 43.96 0 0 0 627.9 36.701 A 47.049 47.049 0 0 0 627.694 32.255 A 38.547 38.547 0 0 0 625.3 21.901 Q 622.7 15.201 618.05 10.301 Q 613.4 5.401 607.05 2.701 A 32.703 32.703 0 0 0 602.969 1.277 A 36.484 36.484 0 0 0 593.2 0.001 A 40.243 40.243 0 0 0 590.884 0.066 A 34.287 34.287 0 0 0 579.35 2.701 Q 573 5.401 568.35 10.301 A 33.415 33.415 0 0 0 566.812 12.038 A 35.61 35.61 0 0 0 561.1 21.901 A 36.777 36.777 0 0 0 559.417 27.575 A 43.845 43.845 0 0 0 558.5 36.701 A 47.344 47.344 0 0 0 558.683 40.908 A 39.133 39.133 0 0 0 561.1 51.551 A 39.835 39.835 0 0 0 561.606 52.8 A 34.583 34.583 0 0 0 568.35 63.201 Q 573 68.101 579.35 70.801 A 32.703 32.703 0 0 0 583.431 72.224 Z M 511.4 70.501 A 30.161 30.161 0 0 0 517.344 69.948 Q 521.028 69.207 523.913 67.475 A 17.649 17.649 0 0 0 525.5 66.401 A 21.591 21.591 0 0 0 531.554 59.132 A 28.888 28.888 0 0 0 533.4 54.751 A 45.888 45.888 0 0 0 535.152 47.303 Q 535.713 43.658 535.853 39.517 A 83.248 83.248 0 0 0 535.9 36.701 A 74.23 74.23 0 0 0 535.487 28.656 Q 534.884 23.133 533.4 18.651 A 27.317 27.317 0 0 0 530.657 12.714 A 20.776 20.776 0 0 0 525.5 7.051 Q 520.476 3.282 512.595 3.02 A 35.933 35.933 0 0 0 511.4 3.001 Q 503.724 3.001 498.557 6.227 A 18.076 18.076 0 0 0 497.35 7.051 Q 491.9 11.101 489.4 18.651 A 45.888 45.888 0 0 0 487.648 26.098 Q 487.087 29.743 486.947 33.885 A 83.248 83.248 0 0 0 486.9 36.701 A 74.23 74.23 0 0 0 487.313 44.745 Q 487.916 50.268 489.4 54.751 A 27.12 27.12 0 0 0 492.256 60.861 A 21.027 21.027 0 0 0 497.35 66.401 A 19.627 19.627 0 0 0 504.704 69.771 Q 507.484 70.432 510.725 70.494 A 35.304 35.304 0 0 0 511.4 70.501 Z M 593.2 70.501 A 30.161 30.161 0 0 0 599.144 69.948 Q 602.828 69.207 605.713 67.475 A 17.649 17.649 0 0 0 607.3 66.401 A 21.591 21.591 0 0 0 613.354 59.132 A 28.888 28.888 0 0 0 615.2 54.751 A 45.888 45.888 0 0 0 616.952 47.303 Q 617.513 43.658 617.653 39.517 A 83.248 83.248 0 0 0 617.7 36.701 A 74.23 74.23 0 0 0 617.287 28.656 Q 616.684 23.133 615.2 18.651 A 27.317 27.317 0 0 0 612.457 12.714 A 20.776 20.776 0 0 0 607.3 7.051 Q 602.276 3.282 594.395 3.02 A 35.933 35.933 0 0 0 593.2 3.001 Q 585.524 3.001 580.357 6.227 A 18.076 18.076 0 0 0 579.15 7.051 Q 573.7 11.101 571.2 18.651 A 45.888 45.888 0 0 0 569.448 26.098 Q 568.887 29.743 568.747 33.885 A 83.248 83.248 0 0 0 568.7 36.701 A 74.23 74.23 0 0 0 569.113 44.745 Q 569.716 50.268 571.2 54.751 A 27.12 27.12 0 0 0 574.056 60.861 A 21.027 21.027 0 0 0 579.15 66.401 A 19.627 19.627 0 0 0 586.504 69.771 Q 589.284 70.432 592.525 70.494 A 35.304 35.304 0 0 0 593.2 70.501 Z M 104.3 12.101 L 91.2 43.801 L 116.9 43.801 L 104.3 12.101 Z M 342.2 12.101 L 329.1 43.801 L 354.8 43.801 L 342.2 12.101 Z"
              vector-effect="non-scaling-stroke"/>
    </g>
</svg>